<svg width="8" height="11" viewBox="0 0 8 11" fill="none" xmlns="http://www.w3.org/2000/svg">
<g clip-path="url(#clip0)">
<path fill-rule="evenodd" clip-rule="evenodd" d="M4 0C1.78857 0 0 1.7215 0 3.85C0 6.1435 2.52571 9.306 3.56571 10.5105C3.79429 10.7745 4.21143 10.7745 4.44 10.5105C5.47429 9.306 8 6.1435 8 3.85C8 1.7215 6.21143 0 4 0ZM4 5.225C3.21143 5.225 2.57143 4.609 2.57143 3.85C2.57143 3.091 3.21143 2.475 4 2.475C4.78857 2.475 5.42857 3.091 5.42857 3.85C5.42857 4.609 4.78857 5.225 4 5.225Z" fill="#2B2A35"/>
</g>
<defs>
<clipPath id="clip0">
<rect width="8" height="11" fill="white"/>
</clipPath>
</defs>
</svg>
