<svg width="15" height="21" viewBox="0 0 15 21" fill="none" xmlns="http://www.w3.org/2000/svg">
<g clip-path="url(#clip0)">
<path d="M4.10779 5.44141H11.3917C11.5239 5.44141 11.6439 5.49662 11.7308 5.58556C11.8176 5.67449 11.8716 5.7973 11.8716 5.93254V11.5199C11.8716 11.6552 11.8176 11.778 11.7308 11.8669C11.6439 11.9558 11.5239 12.0111 11.3917 12.0111H11.2956V13.5668C11.2956 13.6527 11.2276 13.7224 11.1436 13.7224C11.0917 13.7224 11.0458 13.6957 11.0184 13.655L9.6649 12.0111H8.33556V7.61019C8.33556 7.43833 8.26886 7.27465 8.1502 7.15319C8.03154 7.03174 7.87161 6.96347 7.70368 6.96347H3.62793V5.93256C3.62793 5.79732 3.68187 5.6745 3.76876 5.58557C3.85565 5.49664 3.97565 5.44142 4.10778 5.44142L4.10779 5.44141Z" fill="#2B2A35"/>
<path d="M0.479853 7.11914H7.76379C7.89593 7.11914 8.01593 7.17435 8.10281 7.26328C8.18971 7.35221 8.24366 7.47504 8.24366 7.61027V13.1977C8.24366 13.3329 8.18971 13.4557 8.10281 13.5446C8.01593 13.6336 7.89593 13.6888 7.76379 13.6888H2.20669L0.853206 15.3327C0.825791 15.3734 0.779926 15.4001 0.727988 15.4001C0.644028 15.4001 0.575951 15.3304 0.575951 15.2445V13.6888H0.479853C0.347717 13.6888 0.227719 13.6336 0.140834 13.5446C0.0539392 13.4557 0 13.3329 0 13.1977V7.61027C0 7.47504 0.0539392 7.35221 0.140834 7.26328C0.22772 7.17435 0.347718 7.11914 0.479853 7.11914H0.479853ZM3.76967 9.42637C3.68571 9.42637 3.61764 9.49603 3.61764 9.58196C3.61764 9.6679 3.68571 9.73757 3.76967 9.73757H4.47399C4.55795 9.73757 4.62602 9.6679 4.62602 9.58196C4.62602 9.49603 4.55795 9.42637 4.47399 9.42637H3.76967ZM1.56065 9.42637C1.4767 9.42637 1.40863 9.49603 1.40863 9.58196C1.40863 9.6679 1.4767 9.73757 1.56065 9.73757H2.26498C2.34895 9.73757 2.41702 9.6679 2.41702 9.58196C2.41702 9.49603 2.34895 9.42637 2.26498 9.42637H1.56065ZM5.97868 9.42637C5.89472 9.42637 5.82665 9.49603 5.82665 9.58196C5.82665 9.6679 5.89472 9.73757 5.97868 9.73757H6.68299C6.76695 9.73757 6.83502 9.6679 6.83502 9.58196C6.83502 9.49603 6.76695 9.42637 6.68299 9.42637H5.97868Z" fill="#2B2A35"/>
</g>
<defs>
<clipPath id="clip0">
<rect width="15" height="21" fill="white"/>
</clipPath>
</defs>
</svg>
