<svg width="20" height="20" viewBox="0 0 20 20" fill="none" xmlns="http://www.w3.org/2000/svg">
<path fill-rule="evenodd" clip-rule="evenodd" d="M2.22222 20H17.7778C19.0051 20 20 19.0051 20 17.7778V2.22222C20 0.994923 19.0051 0 17.7778 0H2.22222C0.994923 0 0 0.994923 0 2.22222V17.7778C0 19.0051 0.994923 20 2.22222 20Z" fill="white"/>
<path fill-rule="evenodd" clip-rule="evenodd" d="M17.2218 17.2223H14.2539V12.1673C14.2539 10.7814 13.7273 10.0069 12.6303 10.0069C11.437 10.0069 10.8135 10.8129 10.8135 12.1673V17.2223H7.95327V7.59265H10.8135V8.88976C10.8135 8.88976 11.6735 7.29845 13.7169 7.29845C15.7595 7.29845 17.2218 8.54574 17.2218 11.1254V17.2223ZM4.54105 6.33172C3.5668 6.33172 2.77734 5.53607 2.77734 4.55478C2.77734 3.57349 3.5668 2.77783 4.54105 2.77783C5.5153 2.77783 6.30429 3.57349 6.30429 4.55478C6.30429 5.53607 5.5153 6.33172 4.54105 6.33172ZM3.06416 17.2223H6.04662V7.59265H3.06416V17.2223Z" fill="#2B2A35"/>
</svg>
