<svg width="20" height="21" viewBox="0 0 20 21" fill="none" xmlns="http://www.w3.org/2000/svg">
<path d="M9.99996 0C4.47725 0 0 4.70098 0 10.4998C0 16.2993 4.47725 21 9.99996 21C15.5229 21 20 16.2993 20 10.4998C20 4.70098 15.5229 0 9.99996 0Z" fill="#2B2A35"/>
<path d="M14.3663 14.9165C14.1893 15.2213 13.8113 15.3168 13.5221 15.131C11.2093 13.6468 8.29818 13.3116 4.86977 14.1338C4.53939 14.2133 4.21006 13.996 4.1348 13.6492C4.05906 13.3023 4.26535 12.9566 4.59643 12.8774C8.34827 11.9769 11.5665 12.3644 14.1626 14.0301C14.452 14.2157 14.5431 14.6127 14.3663 14.9165Z" fill="white"/>
<path d="M15.5719 12.1003C15.3491 12.4798 14.8765 12.5989 14.5156 12.3658C11.8688 10.6575 7.83263 10.1626 4.70121 11.1607C4.29521 11.2895 3.86627 11.0491 3.74289 10.6235C3.62057 10.1972 3.84957 9.74762 4.25496 9.61799C7.83217 8.47813 12.2792 9.03017 15.3193 10.9918C15.6802 11.2252 15.7938 11.7217 15.5719 12.1003Z" fill="white"/>
<path d="M15.675 9.16808C12.5002 7.18835 7.26341 7.00631 4.23266 7.97218C3.74585 8.12727 3.23118 7.83878 3.08381 7.32778C2.93633 6.81639 3.21072 6.27634 3.69775 6.12103C7.17695 5.01218 12.9605 5.2263 16.6154 7.50436C17.0532 7.77731 17.1967 8.37091 16.9372 8.82981C16.6776 9.28949 16.1117 9.441 15.675 9.16808Z" fill="white"/>
</svg>
