<svg width="18" height="19" viewBox="0 0 18 19" fill="none" xmlns="http://www.w3.org/2000/svg">
<path d="M12.375 0H5.625C2.51888 0 0 2.65881 0 5.9375V13.0625C0 16.3412 2.51888 19 5.625 19H12.375C15.4811 19 18 16.3412 18 13.0625V5.9375C18 2.65881 15.4811 0 12.375 0ZM16.3125 13.0625C16.3125 15.3544 14.5463 17.2188 12.375 17.2188H5.625C3.45375 17.2188 1.6875 15.3544 1.6875 13.0625V5.9375C1.6875 3.64563 3.45375 1.78125 5.625 1.78125H12.375C14.5463 1.78125 16.3125 3.64563 16.3125 5.9375V13.0625Z" fill="#2B2A35"/>
<path d="M9 4.75C6.51487 4.75 4.5 6.87681 4.5 9.5C4.5 12.1232 6.51487 14.25 9 14.25C11.4851 14.25 13.5 12.1232 13.5 9.5C13.5 6.87681 11.4851 4.75 9 4.75ZM9 12.4688C7.44975 12.4688 6.1875 11.1364 6.1875 9.5C6.1875 7.86244 7.44975 6.53125 9 6.53125C10.5503 6.53125 11.8125 7.86244 11.8125 9.5C11.8125 11.1364 10.5503 12.4688 9 12.4688Z" fill="#2B2A35"/>
<path d="M13.8379 5.02662C14.1691 5.02662 14.4375 4.74324 14.4375 4.39368C14.4375 4.04412 14.1691 3.76074 13.8379 3.76074C13.5067 3.76074 13.2383 4.04412 13.2383 4.39368C13.2383 4.74324 13.5067 5.02662 13.8379 5.02662Z" fill="#2B2A35"/>
</svg>
